<svg xmlns="http://www.w3.org/2000/svg" width="1040" height="580" viewBox="0 0 1040 580">
<rect width="100%" height="100%" fill="white"/>
<text x="520.0" y="32" text-anchor="middle" font-family="Arial" font-size="22" font-weight="600">Phase4 Eval Loss vs Estimated Wall-Clock</text>
<text x="520.0" y="54" text-anchor="middle" font-family="Arial" font-size="12" fill="#666">Estimated wall-clock assumes constant measured mean step time per run</text>
<line x1="88" y1="498.0" x2="1010" y2="498.0" stroke="#ddd"/>
<text x="78" y="502.0" text-anchor="end" font-family="Arial" font-size="12">0.188</text>
<line x1="88" y1="410.8" x2="1010" y2="410.8" stroke="#ddd"/>
<text x="78" y="414.8" text-anchor="end" font-family="Arial" font-size="12">0.240</text>
<line x1="88" y1="323.6" x2="1010" y2="323.6" stroke="#ddd"/>
<text x="78" y="327.6" text-anchor="end" font-family="Arial" font-size="12">0.291</text>
<line x1="88" y1="236.4" x2="1010" y2="236.4" stroke="#ddd"/>
<text x="78" y="240.4" text-anchor="end" font-family="Arial" font-size="12">0.343</text>
<line x1="88" y1="149.2" x2="1010" y2="149.2" stroke="#ddd"/>
<text x="78" y="153.2" text-anchor="end" font-family="Arial" font-size="12">0.395</text>
<line x1="88" y1="62.0" x2="1010" y2="62.0" stroke="#ddd"/>
<text x="78" y="66.0" text-anchor="end" font-family="Arial" font-size="12">0.446</text>
<line x1="88.0" y1="62" x2="88.0" y2="498" stroke="#eee"/>
<text x="88.0" y="522" text-anchor="middle" font-family="Arial" font-size="12">0</text>
<line x1="241.7" y1="62" x2="241.7" y2="498" stroke="#eee"/>
<text x="241.7" y="522" text-anchor="middle" font-family="Arial" font-size="12">9</text>
<line x1="395.3" y1="62" x2="395.3" y2="498" stroke="#eee"/>
<text x="395.3" y="522" text-anchor="middle" font-family="Arial" font-size="12">18</text>
<line x1="549.0" y1="62" x2="549.0" y2="498" stroke="#eee"/>
<text x="549.0" y="522" text-anchor="middle" font-family="Arial" font-size="12">27</text>
<line x1="702.7" y1="62" x2="702.7" y2="498" stroke="#eee"/>
<text x="702.7" y="522" text-anchor="middle" font-family="Arial" font-size="12">36</text>
<line x1="856.3" y1="62" x2="856.3" y2="498" stroke="#eee"/>
<text x="856.3" y="522" text-anchor="middle" font-family="Arial" font-size="12">45</text>
<line x1="1010.0" y1="62" x2="1010.0" y2="498" stroke="#eee"/>
<text x="1010.0" y="522" text-anchor="middle" font-family="Arial" font-size="12">54</text>
<line x1="88" y1="498" x2="1010" y2="498" stroke="#333"/>
<line x1="88" y1="62" x2="88" y2="498" stroke="#333"/>
<text x="520.0" y="554" text-anchor="middle" font-family="Arial" font-size="15">Estimated elapsed time (minutes)</text>
<text x="22" y="290.0" transform="rotate(-90 22 290.0)" text-anchor="middle" font-family="Arial" font-size="15">eval loss</text>
<path d="M1010.0,118.1" fill="none" stroke="#1f77b4" stroke-width="2.2" stroke-linecap="round" stroke-linejoin="round"/>
<circle cx="1010.0" cy="118.1" r="4" fill="#1f77b4"/>
<text x="1016.0" y="112.1" font-family="Arial" font-size="11" fill="#1f77b4">4000</text>
<line x1="710" y1="78" x2="740" y2="78" stroke="#1f77b4" stroke-width="3"/>
<text x="748" y="82" font-family="Arial" font-size="13">LOZO full nu50</text>
<path d="M911.7,92.1" fill="none" stroke="#ff7f0e" stroke-width="2.2" stroke-linecap="round" stroke-linejoin="round"/>
<circle cx="911.7" cy="92.1" r="4" fill="#ff7f0e"/>
<text x="917.7" y="86.1" font-family="Arial" font-size="11" fill="#ff7f0e">4000</text>
<line x1="710" y1="101" x2="740" y2="101" stroke="#ff7f0e" stroke-width="3"/>
<text x="748" y="105" font-family="Arial" font-size="13">LOZO lora_only nu50</text>
<path d="M270.3,141.7 L452.7,272.1 L635.0,370.4 L817.4,404.4 L999.7,425.4" fill="none" stroke="#2ca02c" stroke-width="2.2" stroke-linecap="round" stroke-linejoin="round"/>
<circle cx="999.7" cy="425.4" r="4" fill="#2ca02c"/>
<text x="1005.7" y="419.4" font-family="Arial" font-size="11" fill="#2ca02c">20000</text>
<line x1="710" y1="124" x2="740" y2="124" stroke="#2ca02c" stroke-width="3"/>
<text x="748" y="128" font-family="Arial" font-size="13">vLLM lora_only nu50</text>
<path d="M272.0,137.7 L456.0,308.2 L640.0,402.8 L823.9,450.3 L1007.9,467.9" fill="none" stroke="#d62728" stroke-width="2.2" stroke-linecap="round" stroke-linejoin="round"/>
<circle cx="1007.9" cy="467.9" r="4" fill="#d62728"/>
<text x="1013.9" y="461.9" font-family="Arial" font-size="11" fill="#d62728">20000</text>
<line x1="710" y1="147" x2="740" y2="147" stroke="#d62728" stroke-width="3"/>
<text x="748" y="151" font-family="Arial" font-size="13">vLLM lora_only nu100</text>
</svg>